<?xml version="1.0" encoding="UTF-8"?>
<svg id="Capa_2" data-name="Capa 2" xmlns="http://www.w3.org/2000/svg" viewBox="0 0 918.7 918.7">
  <style>
    path { fill: #1d1d1b; stroke: #1d1d1b; stroke-miterlimit: 10; }
    @media (prefers-color-scheme: dark) {
      path { fill: #ffffff; stroke: #ffffff; }
    }
  </style>
  <g id="Capa_1-2" data-name="Capa 1">
    <path d="M459.35.5C205.94.5.5,205.93.5,459.35s205.44,458.85,458.85,458.85,458.85-205.43,458.85-458.85S712.76.5,459.35.5ZM435.98,773.78c0,39.06-34.81,68.33-72.23,60.84-172.44-34.49-302.57-190.12-302.57-376.89S191.32,115.33,363.76,80.84c37.42-7.48,72.23,21.78,72.23,60.84,0,29.6-20.42,55.07-48.76,60.81-116.29,23.57-205.12,129.61-205.12,255.24s88.83,231.67,205.12,255.23c28.34,5.74,48.76,31.22,48.76,60.81h0ZM272.16,457.73c0-104.58,84.78-189.36,189.37-189.36s189.36,84.78,189.36,189.36-84.78,189.36-189.36,189.36-189.37-84.78-189.37-189.36ZM554.94,834.62c-37.42,7.48-72.23-21.78-72.23-60.84,0-29.6,20.42-55.07,48.76-60.81,116.29-23.57,205.12-129.61,205.12-255.23s-88.83-231.67-205.12-255.24c-28.34-5.74-48.76-31.21-48.76-60.81,0-39.06,34.81-68.33,72.23-60.84,172.44,34.49,302.57,190.12,302.57,376.89s-130.14,342.4-302.57,376.89Z"/>
  </g>
</svg>
