<svg width="1491" height="1237" viewBox="0 0 1491 1237" fill="none" xmlns="http://www.w3.org/2000/svg">
<path d="M1687.24 119.171C1552.62 295.899 1294.66 325.786 1117.7 190.987C940.744 56.1887 911.859 -192.202 1046.48 -368.931L590.644 -722C264.45 -293.787 347.592 318.15 776.36 644.768C1205.14 971.397 1817.17 889.036 2143.38 460.807L1687.26 119.183L1687.24 119.171Z" stroke="#070600" stroke-miterlimit="10"/>
<path d="M1109.84 201.726C1283.81 334.247 1535.18 309.049 1671.42 143.116C1677.9 141.6 1933.41 325.371 1938.53 320.894C1942.09 317.777 2119.04 446.194 2122.89 449.127C2077.84 518.816 2020.74 583.225 1953.29 635.179C1617.53 893.678 1136.97 906.126 782.775 636.314C428.578 366.502 312.957 -100.089 472.993 -492.445C505.192 -571.278 552.109 -643.422 607.315 -705.373C611.166 -702.439 781.603 -566.258 779.529 -562.008C776.492 -555.749 1026.86 -353.986 1027.18 -347.196C903.514 -171.928 936 69.3001 1109.83 201.714L1109.84 201.726Z" stroke="#1A1914" stroke-miterlimit="10"/>
<path d="M1101.98 212.464C1272.95 342.696 1517.74 322.227 1655.62 167.046C1668.55 164.001 1909.39 329.179 1919.6 320.23C1926.71 314.011 2094.68 431.569 2102.39 437.435C2066.59 505.528 2014.65 572.582 1947.75 624.686C1616.62 882.212 1140.21 895.252 789.19 627.86C438.171 360.469 324.195 -102.275 484.533 -489.929C516.997 -568.265 567.873 -636.157 623.986 -688.745C631.687 -682.879 789.306 -552.437 785.199 -543.929C779.142 -531.398 1007.21 -339.037 1007.89 -325.449C895.186 -151.642 931.273 82.4231 1101.97 212.452L1101.98 212.464Z" stroke="#2D2C27" stroke-miterlimit="10"/>
<path d="M1094.14 223.215C1262.11 351.169 1500.32 335.388 1639.82 191.003C1659.22 186.442 1885.37 333.015 1900.69 319.589C1911.35 310.242 2070.38 416.979 2081.93 425.779C2055.39 492.248 2008.61 562.002 1942.26 614.228C1615.74 870.797 1143.48 884.402 795.636 619.43C447.81 354.471 335.492 -104.44 496.105 -487.389C528.832 -565.228 583.668 -628.868 640.689 -672.094C652.24 -663.295 797.066 -538.595 790.901 -525.826C781.807 -507.036 987.623 -324.068 988.624 -303.691C886.86 -131.328 926.545 95.5462 1094.13 223.203L1094.14 223.215Z" stroke="#403F3B" stroke-miterlimit="10"/>
<path d="M1086.28 233.953C1251.27 359.63 1482.88 348.538 1624.01 214.933C1649.88 208.871 1861.33 336.84 1881.77 318.909C1895.97 306.46 2046.03 402.339 2061.45 414.084C2044.18 478.941 2002.53 551.371 1936.74 603.748C1614.84 859.343 1146.72 873.528 802.067 610.989C457.418 348.45 346.745 -106.614 507.676 -484.849C540.695 -562.194 599.463 -621.579 657.402 -655.459C672.805 -643.726 804.827 -524.753 796.599 -507.75C784.48 -482.716 968.016 -309.111 969.364 -281.948C878.558 -111.046 921.832 108.682 1086.28 233.953Z" stroke="#53534E" stroke-miterlimit="10"/>
<path d="M1078.44 244.703C1240.43 368.103 1465.45 361.716 1608.21 238.891C1640.54 231.3 1837.31 340.676 1862.86 318.268C1880.63 302.702 2021.72 387.75 2040.98 402.416C2032.97 465.661 1996.48 540.78 1931.23 593.278C1613.95 847.916 1149.97 862.665 808.497 602.547C467.026 342.429 358.011 -108.803 519.231 -482.322C552.514 -559.169 615.242 -614.303 674.089 -638.82C693.358 -624.141 812.572 -510.923 802.285 -489.658C787.13 -458.365 948.411 -294.154 950.078 -260.201C870.229 -90.7594 917.105 121.805 1078.42 244.692L1078.44 244.703Z" stroke="#666662" stroke-miterlimit="10"/>
<path d="M1070.57 255.457C1229.57 376.58 1448 374.881 1592.39 262.852C1631.18 253.744 1813.24 344.503 1843.93 317.631C1865.26 298.948 1997.37 373.152 2020.49 390.763C2021.75 452.397 1990.41 530.176 1925.71 582.825C1613.06 836.489 1153.22 851.803 814.943 594.117C476.65 336.42 369.295 -110.953 530.806 -479.754C564.381 -556.108 631.041 -606.986 690.795 -622.141C713.915 -604.53 820.324 -497.038 807.99 -471.527C789.814 -433.963 928.812 -279.142 930.81 -238.415C861.907 -70.4181 912.38 134.955 1070.59 255.469L1070.57 255.457Z" stroke="#797976" stroke-miterlimit="10"/>
<path d="M1062.73 266.208C1218.74 385.052 1430.59 388.055 1576.6 286.794C1621.87 276.17 1789.23 348.323 1825.02 316.962C1849.88 295.166 1973.06 358.535 2000.03 379.08C2010.54 439.09 1984.36 519.569 1920.22 572.34C1612.17 825.047 1156.49 840.925 821.386 585.66C486.286 330.395 380.561 -113.143 542.374 -477.242C576.213 -553.098 646.848 -599.713 707.494 -605.517C734.465 -584.973 828.081 -483.224 813.661 -453.448C792.448 -409.625 909.191 -264.197 911.524 -216.668C853.578 -50.1319 907.653 148.078 1062.73 266.208Z" stroke="#8D8C89" stroke-miterlimit="10"/>
<path d="M1054.87 276.946C1207.89 393.513 1400.61 376.601 1560.78 310.739C1609.91 290.532 1765.19 352.148 1806.1 316.31C1834.53 291.397 1948.72 343.922 1979.54 367.4C1999.32 425.798 1978.27 508.953 1914.7 561.859C1611.27 813.608 1159.72 830.051 827.801 577.206C495.878 324.362 391.811 -115.344 553.914 -474.727C588.045 -550.088 662.612 -592.448 724.165 -588.89C754.986 -565.412 835.799 -469.391 819.331 -435.368C795.082 -385.286 898.422 -248.956 892.221 -194.933C872.697 -24.3776 902.909 161.19 1054.85 276.934L1054.87 276.946Z" stroke="#A09F9D" stroke-miterlimit="10"/>
<path d="M1047.03 287.697C1197.06 401.986 1386.63 394.392 1544.99 334.681C1600.92 313.601 1741.18 355.968 1787.18 315.657C1819.17 287.627 1924.39 329.321 1959.07 355.732C1988.11 412.518 1972.22 498.362 1909.18 551.405C1610.37 802.182 1162.98 819.216 834.235 568.792C505.49 318.368 403.068 -117.49 565.489 -472.159C599.883 -547.023 678.41 -585.132 740.883 -572.227C775.555 -545.816 843.575 -455.537 825.048 -417.252C797.778 -360.899 878.085 -234.111 872.981 -173.151C858.965 -6.15628 898.2 174.352 1047.03 287.724L1047.03 287.697Z" stroke="#B3B2B1" stroke-miterlimit="10"/>
<path d="M1039.17 298.435C1186.2 410.435 1372.2 412.301 1529.17 358.626C1592.01 337.15 1717.15 359.792 1768.26 315.004C1803.8 283.873 1905.11 309.074 1938.59 344.064C1985.03 392.604 1966.16 487.743 1903.67 540.936C1609.48 790.755 1166.23 808.354 840.666 560.351C515.098 312.347 414.349 -119.668 577.045 -469.631C611.719 -543.986 698.441 -587.463 757.57 -555.588C800.195 -532.604 851.308 -441.691 830.718 -399.173C800.424 -336.576 857.225 -219.294 853.679 -151.416C845.136 12.4849 893.457 187.464 1039.16 298.451L1039.17 298.435Z" stroke="#C6C6C4" stroke-miterlimit="10"/>
<path d="M1031.32 309.185C1175.36 418.908 1357.3 430.398 1513.39 382.568C1583.24 361.172 1693.14 363.612 1749.35 314.336C1788.43 280.076 1879.07 296.15 1918.12 332.369C1970.64 381.099 1960.1 477.123 1898.16 530.439C1608.61 779.297 1169.48 797.464 847.108 551.893C524.733 306.322 425.614 -121.857 588.628 -467.108C623.578 -540.98 713.354 -576.646 774.284 -538.952C819.574 -510.925 859.08 -427.865 836.432 -381.085C803.101 -312.229 835.881 -204.426 834.436 -129.661C831.338 31.6689 888.772 200.595 1031.34 309.197L1031.32 309.185Z" stroke="#D9D9D8" stroke-miterlimit="10"/>
<path d="M1023.47 319.924C1164.52 427.369 1341.92 448.645 1497.57 406.514C1574.5 385.694 1669.1 367.436 1730.43 313.683C1773.06 276.321 1853.05 283.446 1897.64 320.701C1956.73 370.062 1954.03 466.52 1892.66 519.97C1607.72 767.87 1172.74 786.602 853.538 543.452C534.341 300.301 436.868 -124.031 600.183 -464.58C635.413 -537.943 727.699 -566.188 790.971 -522.313C838.731 -489.217 866.814 -414.02 842.118 -362.994C805.751 -287.878 813.958 -189.48 815.149 -107.914C817.486 51.3794 884.029 213.706 1023.48 319.935L1023.47 319.924Z" stroke="#ECECEB" stroke-miterlimit="10"/>
<path d="M859.953 534.998C543.934 294.268 448.134 -126.221 611.739 -462.052C647.245 -534.933 741.571 -556.016 807.658 -505.674C857.732 -467.53 874.559 -400.19 847.788 -344.914C737.984 -118.028 803.055 168.749 1015.61 330.662C1228.18 492.587 1521.94 479.152 1711.49 313.018C1757.69 272.54 1827.06 270.864 1877.15 309.021C1943.24 359.363 1947.95 455.916 1887.13 509.489C1606.82 756.416 1175.97 775.728 859.969 535.01L859.953 534.998Z" stroke="white" stroke-miterlimit="10"/>
</svg>
