<svg preserveAspectRatio="xMidYMid meet" viewBox="0 0 2344.96 360.316" fill="none" xmlns="http://www.w3.org/2000/svg">
<g id="Group 55">
<path id="Vector" d="M2247.96 0C2194.43 0 2150.96 43.4119 2150.96 97.0384C2150.96 150.665 2194.36 194.077 2247.96 194.077C2301.56 194.077 2344.96 150.665 2344.96 97.0384C2344.96 43.4119 2301.56 0 2247.96 0ZM2227.75 176.753C2191.32 169.438 2163.8 136.585 2163.8 97.1074C2163.8 57.6295 2191.32 24.7082 2227.75 17.4614C2235.68 15.874 2242.99 22.0856 2242.99 30.2986C2242.99 36.5792 2238.65 41.9626 2232.71 43.1358C2208.15 48.1051 2189.39 70.5357 2189.39 97.1074C2189.39 123.679 2208.15 146.11 2232.71 151.079C2238.72 152.321 2242.99 157.705 2242.99 163.916C2242.99 172.198 2235.61 178.341 2227.75 176.753ZM2208.36 97.0384C2208.36 74.9528 2226.3 57.0083 2248.37 57.0083C2270.45 57.0083 2288.39 74.9528 2288.39 97.0384C2288.39 119.124 2270.45 137.068 2248.37 137.068C2226.3 137.068 2208.36 119.124 2208.36 97.0384ZM2268.1 176.339C2260.17 177.927 2252.86 171.715 2252.86 163.502C2252.86 157.222 2257.2 151.838 2263.14 150.665C2287.7 145.696 2306.46 123.265 2306.46 96.6933C2306.46 70.1216 2287.7 47.691 2263.14 42.7217C2257.14 41.4794 2252.86 36.0961 2252.86 29.8845C2252.86 21.6024 2260.24 15.4599 2268.1 17.0473C2304.53 24.3631 2332.06 57.2154 2332.06 96.6933C2332.06 136.171 2304.53 169.093 2268.1 176.339Z" fill="var(--fill-0, white)"/>
<path id="Vector_2" d="M1158.51 253.757C1158.51 312.629 1110.5 355.075 1044.69 355.075C972.386 355.075 924.371 296.203 924.371 296.203L918.714 291.026L970.248 253.757C970.248 253.757 1008.74 293.58 1043.37 293.58C1074.14 293.58 1095.32 277.982 1095.32 255.068C1095.32 232.155 1073.66 223.458 1037.3 209.586L1036.89 209.172H1036.48L1034.75 208.758C1034.34 208.344 1033.85 208.344 1033.44 208.344L1023.92 204.893C979.768 187.569 932.995 162.033 932.995 105.715C932.995 49.3967 979.285 10.4709 1042.48 10.4709C1105.67 10.4709 1144.23 58.0929 1144.23 58.0929L1097.05 98.399C1097.05 98.399 1071.94 71.9654 1042.48 71.9654C1015.64 71.9654 996.187 85.3548 996.187 104.887C996.187 120.07 1009.57 130.423 1045.1 145.193L1061.1 151.266C1104.36 168.176 1158.51 189.364 1158.51 253.895V253.757Z" fill="var(--fill-0, white)"/>
<path id="Vector_3" d="M1537.25 179.701C1537.25 281.916 1459.37 359.008 1355.47 359.008C1251.58 359.008 1173.21 281.916 1173.21 179.701C1173.21 77.4864 1251.58 0.394025 1355.47 0.394025C1459.37 0.394025 1537.25 77.0723 1537.25 179.701ZM1472.34 179.701C1472.34 113.444 1422.11 64.097 1355.47 64.097C1288.83 64.097 1238.19 113.444 1238.19 179.701C1238.19 245.958 1288.42 295.305 1355.47 295.305C1422.53 295.305 1472.34 245.475 1472.34 179.701Z" fill="var(--fill-0, white)"/>
<path id="Vector_4" d="M1617.35 181.427C1617.35 242.507 1667.16 292.752 1728.62 292.752C1734.7 292.752 1741.59 292.338 1747.25 291.026V186.672H1810.86V335.611C1784.92 348.173 1756.77 356.386 1728.62 356.386C1632.11 356.386 1553.74 277.982 1553.74 181.427C1553.74 84.8714 1632.11 6.88176 1728.62 6.88176C1756.77 6.88176 1784.92 14.6807 1810.86 27.656V106.474C1784.92 84.3882 1755.87 70.5158 1728.62 70.5158C1667.16 70.5158 1617.35 120.346 1617.35 181.358V181.427Z" fill="var(--fill-0, white)"/>
<path id="Vector_5" d="M2150.96 339.062H2082.6L2063.56 286.195H1928.07L1909.03 339.062H1840.66L1967.46 0.394025H2023.75L2151.03 339.062H2150.96ZM2041.48 225.184L1996.02 100.055L1950.14 225.184H2041.48Z" fill="var(--fill-0, white)"/>
<g id="Group">
<path id="Vector_6" d="M234.626 247.678C234.626 307.862 186.61 350.307 117.761 350.307H0V11.7082H109.483C177.849 11.7082 222.898 49.8058 222.898 108.678C222.898 132.903 213.791 154.988 197.786 171.897C221.587 190.532 234.557 216.069 234.557 247.678H234.626ZM63.6062 73.2026V144.221H115.554C142.804 144.221 159.292 131.246 159.292 109.161C159.292 76.6535 125.557 73.2026 111.276 73.2026H63.6752H63.6062ZM170.536 246.85C170.536 221.728 149.771 206.13 116.864 206.13H63.6062V288.399H118.589C151.91 288.399 170.536 273.215 170.536 246.85Z" fill="var(--fill-0, white)"/>
<path id="Vector_7" d="M617.229 181.009C617.229 283.224 539.342 360.316 435.448 360.316C331.553 360.316 253.183 283.224 253.183 181.009C253.183 78.7943 331.553 1.70192 435.448 1.70192C539.342 1.70192 617.229 78.3802 617.229 181.009ZM552.312 181.009C552.312 114.752 502.089 65.4049 435.448 65.4049C368.806 65.4049 318.169 114.752 318.169 181.009C318.169 247.266 368.392 296.613 435.448 296.613C502.503 296.613 552.312 246.783 552.312 181.009Z" fill="var(--fill-0, white)"/>
<path id="Vector_8" d="M896.007 350.307H823.294L755.755 226.007H712.5V350.307H647.583V11.7082H766.172C838.885 11.7082 886.486 53.2566 886.486 118.685C886.486 164.168 862.272 199.228 822.397 215.654L896.007 350.307ZM771.76 163.27C801.632 163.27 821.569 145.533 821.569 118.685C821.569 91.8373 801.218 74.514 768.725 74.514H712.431V163.27H771.76Z" fill="var(--fill-0, white)"/>
</g>
</g>
</svg>
