<svg width="90.157" height="59" viewBox="0 0 90.157 59" fill="none" xmlns="http://www.w3.org/2000/svg">
<g transform="translate(3.4 0)"><g id="Group">
<path id="Vector" d="M17.1646 22.5311C17.1646 26.924 13.6525 30.0111 8.61783 30.0111H5.91339e-08V5.32407H8.00879C13.013 5.32407 16.3018 8.10757 16.3018 12.3992C16.3018 14.1705 15.6319 15.7799 14.4646 17.0148C16.2105 18.3711 17.1545 20.2335 17.1545 22.5413L17.1646 22.5311ZM4.65911 9.80803V14.9904H8.45542C10.4551 14.9904 11.6528 14.0389 11.6528 12.4296C11.6528 10.0611 9.18626 9.80803 8.14075 9.80803H4.65911ZM12.475 22.4704C12.475 20.6384 10.9525 19.5047 8.54677 19.5047H4.64896V25.5069H8.66858C11.1047 25.5069 12.4649 24.4037 12.4649 22.4704H12.475Z" fill="white"/>
<path id="Vector_2" d="M45.1599 17.6727C45.1599 25.1223 39.4552 30.75 31.8626 30.75C24.27 30.75 18.5349 25.1324 18.5349 17.6727C18.5349 10.2129 24.27 4.5953 31.8626 4.5953C39.4552 4.5953 45.1599 10.1825 45.1599 17.6727ZM40.4094 17.6727C40.4094 12.8446 36.7349 9.24121 31.8626 9.24121C26.9903 9.24121 23.2854 12.8446 23.2854 17.6727C23.2854 22.5008 26.9599 26.1041 31.8626 26.1041C36.7653 26.1041 40.4094 22.4704 40.4094 17.6727Z" fill="white"/>
<path id="Vector_3" d="M65.5523 30.0213H60.2334L55.2901 20.9623H52.1231V30.0213H47.3727V5.32407H56.0514C61.3703 5.32407 64.8519 8.36061 64.8519 13.128C64.8519 16.4479 63.0756 18.9986 60.1624 20.2031L65.5422 30.0213H65.5523ZM56.4676 16.3771C58.65 16.3771 60.1116 15.0815 60.1116 13.128C60.1116 11.1745 58.6195 9.90925 56.2443 9.90925H52.1231V16.3872H56.4574L56.4676 16.3771Z" fill="white"/>
<path id="Vector_4" d="M78.0071 0C75.0533 0 72.6679 2.38875 72.6679 5.32407C72.6679 8.25939 75.0634 10.6481 78.0071 10.6481C80.9507 10.6481 83.3463 8.25939 83.3463 5.32407C83.3463 2.38875 80.9507 0 78.0071 0ZM77.7432 8.96792C77.7432 9.4234 77.3371 9.75742 76.9007 9.67645C74.8909 9.27157 73.3784 7.46989 73.3784 5.30383C73.3784 3.13776 74.8909 1.32596 76.9007 0.931206C77.3371 0.84011 77.7432 1.18425 77.7432 1.63973C77.7432 1.98387 77.5097 2.27741 77.1747 2.34826C75.8247 2.62155 74.7893 3.85641 74.7893 5.31395C74.7893 6.77149 75.8247 8.00635 77.1747 8.27964C77.4995 8.35049 77.7432 8.64402 77.7432 8.98816V8.96792ZM75.8349 5.30383C75.8349 4.08921 76.8195 3.10739 78.0375 3.10739C79.2556 3.10739 80.2402 4.08921 80.2402 5.30383C80.2402 6.51844 79.2556 7.50026 78.0375 7.50026C76.8195 7.50026 75.8349 6.51844 75.8349 5.30383ZM79.1236 9.67645C78.6872 9.76754 78.2811 9.4234 78.2811 8.96792C78.2811 8.62378 78.5146 8.33024 78.8496 8.25939C80.1996 7.9861 81.235 6.75124 81.235 5.2937C81.235 3.83616 80.1996 2.6013 78.8496 2.32801C78.5248 2.25716 78.2811 1.96363 78.2811 1.61949C78.2811 1.16401 78.6872 0.829988 79.1236 0.910962C81.1335 1.31583 82.6459 3.11752 82.6459 5.28358C82.6459 7.44965 81.1335 9.26145 79.1236 9.6562V9.67645Z" fill="white"/>
</g></g>
<g transform="translate(0 32.86)"><g id="Group">
<path id="Vector" d="M17.5503 18.4723C17.5503 22.7639 14.0382 25.8612 9.21671 25.8612C3.92827 25.8612 0.416173 21.5696 0.416173 21.5696L0 21.1951L3.76586 18.4824C3.76586 18.4824 6.58772 21.3874 9.11521 21.3874C11.3686 21.3874 12.9115 20.2537 12.9115 18.5735C12.9115 16.8933 11.328 16.2657 8.66858 15.2536L8.63813 15.2232H8.60768L8.48587 15.1928C8.48587 15.1928 8.42497 15.1625 8.39452 15.1625L7.69413 14.9094C4.46625 13.6442 1.04551 11.7818 1.04551 7.68245C1.04551 3.58312 4.4358 0.738891 9.0543 0.738891C13.6728 0.738891 16.4947 4.21067 16.4947 4.21067L13.0435 7.146C13.0435 7.146 11.2062 5.22285 9.0543 5.22285C7.09524 5.22285 5.66401 6.20467 5.66401 7.62172C5.66401 8.725 6.64862 9.48413 9.24716 10.557L10.4145 11.0024C13.5815 12.2373 17.5402 13.7859 17.5402 18.4824L17.5503 18.4723Z" fill="white"/>
<path id="Vector_2" d="M45.2614 13.0774C45.2614 20.527 39.5567 26.1547 31.9641 26.1547C24.3715 26.1547 18.6364 20.5371 18.6364 13.0774C18.6364 5.6176 24.3715 0 31.9641 0C39.5567 0 45.2614 5.58724 45.2614 13.0774ZM40.5109 13.0774C40.5109 8.24927 36.8364 4.64591 31.9641 4.64591C27.0919 4.64591 23.3869 8.24927 23.3869 13.0774C23.3869 17.9055 27.0614 21.5088 31.9641 21.5088C36.8668 21.5088 40.5109 17.8751 40.5109 13.0774Z" fill="white"/>
<path id="Vector_3" d="M51.1284 13.1988C51.1284 17.6524 54.7724 21.3165 59.2691 21.3165C59.7158 21.3165 60.2233 21.2862 60.6293 21.1951V13.5835H65.2884V24.4442C63.3903 25.3551 61.3297 25.9624 59.2691 25.9624C52.2043 25.9624 46.4794 20.2436 46.4794 13.209C46.4794 6.1743 52.2145 0.485846 59.2691 0.485846C61.3297 0.485846 63.3903 1.05267 65.2884 2.00412V7.7533C63.3903 6.14394 61.2688 5.13175 59.2691 5.13175C54.7724 5.13175 51.1284 8.76548 51.1284 13.2191V13.1988Z" fill="white"/>
<path id="Vector_4" d="M90.1675 24.6972H85.1632L83.7726 20.8408H73.8555L72.4649 24.6972H67.4606L76.7383 0H80.8594L90.1675 24.6972ZM82.1485 16.3872L78.8191 7.25734L75.4593 16.3872H82.1384H82.1485Z" fill="white"/>
</g></g>
</svg>
