<svg width="329" height="64" viewBox="0 0 329 64" fill="none" xmlns="http://www.w3.org/2000/svg">
<g clip-path="url(#clip0_2_57)">
<path d="M29.7582 31.4283C31.1617 33.2237 31.8635 35.2742 31.8635 37.5798C31.8635 40.906 30.6971 43.5423 28.3642 45.4889C26.0313 47.4354 22.7786 48.4087 18.606 48.4087H0V8.60831H17.9801C22.0389 8.60831 25.2158 9.53434 27.5107 11.3864C29.8056 13.2385 30.9531 15.752 30.9531 18.9269C30.9531 21.2703 30.3367 23.2169 29.1039 24.7666C27.8711 26.3163 26.2305 27.3935 24.1821 27.9982C26.496 28.4896 28.3547 29.633 29.7582 31.4283ZM9.72974 24.7099H16.1024C17.6956 24.7099 18.9189 24.3603 19.7724 23.661C20.6259 22.9618 21.0527 21.9318 21.0527 20.5711C21.0527 19.2104 20.6259 18.171 19.7724 17.4528C18.9189 16.7347 17.6956 16.3756 16.1024 16.3756H9.72974V24.7099ZM20.6828 39.4791C21.5742 38.7421 22.0199 37.6743 22.0199 36.2758C22.0199 34.8773 21.5553 33.7812 20.6259 32.9875C19.6966 32.1937 18.4163 31.7969 16.7852 31.7969H9.72974V40.5847H16.899C18.5301 40.5847 19.7914 40.2162 20.6828 39.4791Z" fill="white"/>
<path d="M43.5563 46.8779C41.0717 45.555 39.1181 43.6651 37.6957 41.2083C36.2732 38.7515 35.562 35.8789 35.562 32.5906C35.562 29.3022 36.2827 26.4769 37.7241 24.0012C39.1656 21.5255 41.1381 19.6262 43.6416 18.3033C46.1452 16.9804 48.9522 16.3189 52.0627 16.3189C55.1732 16.3189 57.9802 16.9804 60.4837 18.3033C62.9873 19.6262 64.9598 21.5255 66.4013 24.0012C67.8427 26.4769 68.5634 29.34 68.5634 32.5906C68.5634 35.8411 67.8332 38.7043 66.3728 41.18C64.9124 43.6557 62.9209 45.555 60.3984 46.8779C57.8759 48.2008 55.0594 48.8622 51.9489 48.8622C48.8384 48.8622 46.0409 48.2008 43.5563 46.8779ZM56.7 38.4302C58.0086 37.0695 58.663 35.123 58.663 32.5906C58.663 30.0582 58.0276 28.1116 56.7569 26.7509C55.4861 25.3902 53.9214 24.7099 52.0627 24.7099C50.204 24.7099 48.5918 25.3808 47.3401 26.7226C46.0883 28.0644 45.4624 30.0204 45.4624 32.5906C45.4624 35.1608 46.0788 37.0695 47.3116 38.4302C48.5444 39.7909 50.0902 40.4713 51.9489 40.4713C53.8076 40.4713 55.3913 39.7909 56.7 38.4302Z" fill="white"/>
<path d="M87.7384 17.9347C89.4454 16.9331 91.342 16.4323 93.4283 16.4323V26.6942H90.754C88.3263 26.6942 86.5056 27.2139 85.2917 28.2534C84.0779 29.2928 83.471 31.1165 83.471 33.7245V48.4087H73.7412V16.7725H83.471V22.0452C84.6089 20.3065 86.0314 18.9364 87.7384 17.9347Z" fill="white"/>
<path d="M103.613 47.4448C101.451 46.4999 99.7441 45.2054 98.4924 43.5612C97.2406 41.917 96.5388 40.0744 96.3871 38.0334H106.003C106.117 39.1295 106.629 40.0177 107.539 40.6981C108.45 41.3784 109.569 41.7186 110.896 41.7186C112.11 41.7186 113.049 41.4824 113.713 41.0099C114.377 40.5374 114.709 39.9232 114.709 39.1673C114.709 38.2601 114.234 37.5892 113.286 37.1546C112.338 36.7199 110.802 36.238 108.677 35.7088C106.401 35.1797 104.505 34.6222 102.987 34.0363C101.47 33.4505 100.161 32.5244 99.0613 31.2582C97.9613 29.992 97.4113 28.2817 97.4113 26.1273C97.4113 24.313 97.9139 22.6594 98.9191 21.1664C99.9243 19.6734 101.404 18.4922 103.357 17.6229C105.311 16.7536 107.634 16.3189 110.327 16.3189C114.31 16.3189 117.449 17.3016 119.744 19.2671C122.039 21.2325 123.357 23.8405 123.699 27.0911H114.709C114.557 25.995 114.073 25.1256 113.258 24.4831C112.442 23.8405 111.371 23.5193 110.043 23.5193C108.905 23.5193 108.032 23.7366 107.426 24.1713C106.819 24.6059 106.515 25.2012 106.515 25.9572C106.515 26.8643 106.999 27.5447 107.966 27.9982C108.933 28.4518 110.441 28.9054 112.49 29.3589C114.841 29.9637 116.757 30.559 118.236 31.1448C119.716 31.7307 121.015 32.6756 122.134 33.9796C123.253 35.2836 123.831 37.0317 123.869 39.224C123.869 41.076 123.348 42.7297 122.305 44.1848C121.261 45.64 119.763 46.7834 117.81 47.6149C115.856 48.4465 113.59 48.8622 111.01 48.8622C108.241 48.8622 105.775 48.3898 103.613 47.4448Z" fill="white"/>
<path d="M135.903 46.8779C133.419 45.555 131.465 43.6651 130.043 41.2083C128.62 38.7515 127.909 35.8789 127.909 32.5906C127.909 29.3022 128.63 26.4769 130.071 24.0012C131.513 21.5255 133.485 19.6262 135.989 18.3033C138.492 16.9804 141.299 16.3189 144.41 16.3189C147.52 16.3189 150.327 16.9804 152.831 18.3033C155.335 19.6262 157.307 21.5255 158.748 24.0012C160.19 26.4769 160.911 29.34 160.911 32.5906C160.911 35.8411 160.18 38.7043 158.72 41.18C157.26 43.6557 155.268 45.555 152.746 46.8779C150.223 48.2008 147.407 48.8622 144.296 48.8622C141.186 48.8622 138.388 48.2008 135.903 46.8779ZM149.047 38.4302C150.356 37.0695 151.01 35.123 151.01 32.5906C151.01 30.0582 150.375 28.1116 149.104 26.7509C147.833 25.3902 146.269 24.7099 144.41 24.7099C142.551 24.7099 140.939 25.3808 139.687 26.7226C138.436 28.0644 137.81 30.0204 137.81 32.5906C137.81 35.1608 138.426 37.0695 139.659 38.4302C140.892 39.7909 142.437 40.4713 144.296 40.4713C146.155 40.4713 147.739 39.7909 149.047 38.4302Z" fill="white"/>
<path d="M184.04 17.6796C185.728 18.5867 187.027 19.7773 187.938 21.2514V16.7725H197.667V48.352C197.667 51.2624 197.089 53.8987 195.932 56.261C194.775 58.6234 193.011 60.5038 190.64 61.9023C188.27 63.3007 185.32 64 181.793 64C177.089 64 173.277 62.8944 170.356 60.6833C167.435 58.4722 165.766 55.4767 165.349 51.697H174.965C175.268 52.9065 175.989 53.8609 177.127 54.5602C178.265 55.2594 179.668 55.609 181.337 55.609C183.348 55.609 184.95 55.0326 186.145 53.8798C187.34 52.727 187.938 50.8844 187.938 48.352V43.873C186.989 45.3471 185.681 46.5472 184.012 47.4732C182.343 48.3992 180.389 48.8622 178.151 48.8622C175.534 48.8622 173.163 48.1913 171.039 46.8495C168.914 45.5077 167.236 43.599 166.003 41.1233C164.77 38.6476 164.154 35.7844 164.154 32.5339C164.154 29.2833 164.77 26.4296 166.003 23.9728C167.236 21.516 168.914 19.6262 171.039 18.3033C173.163 16.9804 175.534 16.3189 178.151 16.3189C180.389 16.3189 182.352 16.7725 184.04 17.6796ZM185.918 26.8643C184.571 25.4658 182.931 24.7666 180.996 24.7666C179.061 24.7666 177.421 25.4564 176.074 26.836C174.728 28.2156 174.054 30.1149 174.054 32.5339C174.054 34.9529 174.728 36.8711 176.074 38.2885C177.421 39.7059 179.061 40.4146 180.996 40.4146C182.931 40.4146 184.571 39.7153 185.918 38.3168C187.264 36.9183 187.938 35.0096 187.938 32.5906C187.938 30.1716 187.264 28.2628 185.918 26.8643Z" fill="white"/>
<path d="M204.638 23.9728C205.87 21.516 207.549 19.6262 209.673 18.3033C211.797 16.9804 214.168 16.3189 216.786 16.3189C219.024 16.3189 220.987 16.7725 222.675 17.6796C224.363 18.5867 225.662 19.7773 226.572 21.2514V16.7725H236.302V48.4087H226.572V43.9297C225.624 45.4038 224.306 46.5944 222.618 47.5015C220.93 48.4087 218.967 48.8622 216.729 48.8622C214.149 48.8622 211.797 48.1913 209.673 46.8495C207.549 45.5077 205.87 43.599 204.638 41.1233C203.405 38.6476 202.788 35.7844 202.788 32.5339C202.788 29.2833 203.405 26.4296 204.638 23.9728ZM224.552 26.8643C223.206 25.4658 221.565 24.7666 219.63 24.7666C217.696 24.7666 216.055 25.4564 214.709 26.836C213.362 28.2156 212.689 30.1149 212.689 32.5339C212.689 34.9529 213.362 36.8711 214.709 38.2885C216.055 39.7059 217.696 40.4146 219.63 40.4146C221.565 40.4146 223.206 39.7153 224.552 38.3168C225.899 36.9183 226.572 35.0096 226.572 32.5906C226.572 30.1716 225.899 28.2628 224.552 26.8643Z" fill="white"/>
<path d="M255.306 47.974C254.453 47.6055 253.779 47.0952 253.286 46.4432C252.793 45.7912 252.518 45.0447 252.471 44.1943H254.87C254.936 44.8936 255.268 45.4605 255.856 45.8952C256.444 46.3393 257.212 46.5566 258.17 46.5566C259.052 46.5566 259.754 46.3582 260.266 45.9708C260.778 45.5834 261.034 45.0825 261.034 44.4967C261.034 43.9108 260.759 43.4289 260.219 43.136C259.678 42.8431 258.834 42.5501 257.687 42.2572C256.653 41.9832 255.799 41.7091 255.145 41.4257C254.491 41.1422 253.931 40.7264 253.457 40.1784C252.992 39.6303 252.755 38.9027 252.755 38.005C252.755 37.2963 252.973 36.6443 253.391 36.049C253.817 35.4537 254.424 34.9813 255.202 34.6411C255.989 34.2915 256.88 34.1214 257.886 34.1214C259.431 34.1214 260.683 34.5088 261.641 35.2931C262.589 36.0679 263.101 37.1451 263.168 38.4964H260.844C260.797 37.7688 260.503 37.1829 259.962 36.7388C259.431 36.3042 258.711 36.0774 257.81 36.0774C256.975 36.0774 256.311 36.2569 255.818 36.6065C255.325 36.9656 255.079 37.4286 255.079 38.005C255.079 38.4586 255.23 38.846 255.524 39.1389C255.818 39.4319 256.198 39.6775 256.653 39.8476C257.099 40.0272 257.724 40.2256 258.531 40.4429C259.536 40.717 260.351 40.9815 260.977 41.2461C261.603 41.5107 262.144 41.9076 262.599 42.4273C263.045 42.9564 263.282 43.6368 263.301 44.4872C263.301 45.2526 263.082 45.933 262.665 46.5472C262.238 47.1614 261.641 47.6338 260.863 47.9835C260.086 48.3331 259.204 48.5032 258.199 48.5032C257.127 48.5032 256.169 48.3236 255.316 47.9551L255.306 47.974Z" fill="white"/>
<path d="M269.398 36.2569V44.4778C269.398 45.1581 269.54 45.6306 269.834 45.9141C270.128 46.1975 270.622 46.3298 271.342 46.3298H273.049V48.2858H270.953C269.664 48.2858 268.687 47.9929 268.042 47.3976C267.397 46.8023 267.075 45.829 267.075 44.4778V36.2569H265.264V34.3481H267.075V30.833H269.398V34.3481H273.049V36.2569H269.398Z" fill="white"/>
<path d="M288.26 34.3481V48.2858H285.937V46.2259C285.491 46.9346 284.875 47.4921 284.088 47.889C283.301 48.2858 282.428 48.4843 281.47 48.4843C280.38 48.4843 279.403 48.2575 278.531 47.8134C277.658 47.3693 276.975 46.6889 276.473 45.7912C275.97 44.8935 275.724 43.7974 275.724 42.5123V34.3481H278.018V42.2099C278.018 43.5801 278.369 44.6384 279.062 45.3755C279.763 46.1125 280.712 46.481 281.926 46.481C283.139 46.481 284.145 46.1031 284.856 45.3377C285.567 44.5723 285.927 43.4667 285.927 42.0021V34.3481H288.251H288.26Z" fill="white"/>
<path d="M292.196 37.5231C292.774 36.4459 293.571 35.6144 294.586 35.0191C295.6 34.4238 296.729 34.1308 297.99 34.1308C299.081 34.1308 300.095 34.3765 301.025 34.8773C301.963 35.3781 302.675 36.0301 303.168 36.8428V29.4629H305.52V48.2859H303.168V45.6684C302.703 46.4999 302.03 47.1803 301.119 47.7189C300.209 48.2575 299.166 48.5221 297.952 48.5221C296.738 48.5221 295.581 48.2197 294.567 47.6055C293.552 46.9913 292.755 46.1409 292.177 45.0353C291.598 43.9297 291.304 42.673 291.304 41.2745C291.304 39.876 291.589 38.6003 292.177 37.5231H292.196ZM302.532 38.5437C302.106 37.7688 301.537 37.1641 300.806 36.7483C300.086 36.3325 299.289 36.1246 298.417 36.1246C297.544 36.1246 296.757 36.3325 296.046 36.7388C295.335 37.1452 294.766 37.7405 294.339 38.5248C293.912 39.2996 293.704 40.2162 293.704 41.2745C293.704 42.3328 293.912 43.2683 294.339 44.062C294.766 44.8463 295.335 45.4511 296.046 45.8668C296.757 46.2826 297.554 46.4905 298.417 46.4905C299.28 46.4905 300.076 46.2826 300.806 45.8668C301.527 45.4511 302.106 44.8463 302.532 44.062C302.959 43.2777 303.168 42.3517 303.168 41.3028C303.168 40.254 302.95 39.3374 302.532 38.5531V38.5437Z" fill="white"/>
<path d="M309.522 31.6268C309.218 31.3244 309.066 30.9464 309.066 30.5117C309.066 30.0771 309.218 29.6991 309.522 29.3873C309.825 29.0755 310.204 28.9337 310.65 28.9337C311.096 28.9337 311.437 29.0849 311.731 29.3873C312.025 29.6897 312.177 30.0676 312.177 30.5117C312.177 30.9559 312.025 31.3244 311.731 31.6268C311.437 31.9291 311.067 32.0803 310.65 32.0803C310.233 32.0803 309.835 31.9291 309.522 31.6268ZM311.769 34.3482V48.2858H309.446V34.3482H311.769Z" fill="white"/>
<path d="M318.265 47.6338C317.203 47.0385 316.368 46.1975 315.761 45.1014C315.155 44.0053 314.851 42.7391 314.851 41.2934C314.851 39.8476 315.164 38.6098 315.78 37.5137C316.397 36.4175 317.25 35.5765 318.322 34.9907C319.394 34.4048 320.598 34.1119 321.926 34.1119C323.253 34.1119 324.458 34.4048 325.52 34.9907C326.591 35.5765 327.435 36.4081 328.061 37.4948C328.687 38.5814 328.991 39.8476 328.991 41.2839C328.991 42.7202 328.668 43.9959 328.033 45.092C327.397 46.1881 326.534 47.0291 325.444 47.6244C324.353 48.2197 323.149 48.5126 321.821 48.5126C320.494 48.5126 319.327 48.2197 318.265 47.6244V47.6338ZM324.183 45.9046C324.913 45.5077 325.51 44.9313 325.956 44.147C326.402 43.3722 326.629 42.4178 326.629 41.2934C326.629 40.1689 326.411 39.224 325.965 38.4491C325.52 37.6743 324.941 37.0884 324.23 36.7105C323.519 36.3325 322.741 36.1435 321.907 36.1435C321.072 36.1435 320.275 36.3325 319.574 36.7105C318.862 37.0979 318.303 37.6743 317.876 38.4491C317.449 39.2334 317.241 40.1783 317.241 41.2934C317.241 42.4084 317.449 43.3911 317.867 44.1659C318.284 44.9408 318.843 45.5266 319.536 45.9046C320.228 46.2826 320.996 46.4716 321.831 46.4716C322.665 46.4716 323.452 46.2731 324.183 45.8857V45.9046Z" fill="white"/>
<path d="M247.35 0C243.765 0 240.863 2.89148 240.863 6.45386C240.863 10.0162 243.765 12.9077 247.35 12.9077C250.934 12.9077 253.836 10.0162 253.836 6.45386C253.836 2.89148 250.934 0 247.35 0ZM247.018 10.8761C247.018 11.4242 246.525 11.84 245.994 11.736C243.557 11.2541 241.717 9.06186 241.717 6.43496C241.717 3.80806 243.557 1.61583 245.994 1.13391C246.525 1.02997 247.018 1.43629 247.018 1.9938C247.018 2.40957 246.733 2.76864 246.326 2.85368C244.685 3.18441 243.424 4.6774 243.424 6.44441C243.424 8.21143 244.685 9.70441 246.326 10.0351C246.724 10.1202 247.018 10.4698 247.018 10.895V10.8761ZM244.704 6.43496C244.704 4.96087 245.899 3.77026 247.378 3.77026C248.858 3.77026 250.053 4.96087 250.053 6.43496C250.053 7.90905 248.858 9.09966 247.378 9.09966C245.899 9.09966 244.704 7.90905 244.704 6.43496ZM248.706 11.736C248.175 11.84 247.682 11.4336 247.682 10.8761C247.682 10.4604 247.966 10.1013 248.374 10.0162C250.015 9.68552 251.276 8.19253 251.276 6.42551C251.276 4.6585 250.015 3.16551 248.374 2.83479C247.976 2.74974 247.682 2.40012 247.682 1.9749C247.682 1.42684 248.175 1.01107 248.706 1.11502C251.143 1.59693 252.983 3.78916 252.983 6.41606C252.983 9.04296 251.143 11.2352 248.706 11.7171V11.736Z" fill="white"/>
</g>
<defs>
<clipPath id="clip0_2_57">
<rect width="329" height="64" fill="white"/>
</clipPath>
</defs>
</svg>
